<?xml version="1.0" encoding="UTF-8"?>
<svg width="300px" height="300px" viewBox="0 0 300 300" version="1.1" xmlns="http://www.w3.org/2000/svg" xmlns:xlink="http://www.w3.org/1999/xlink">
    <!-- Generator: Sketch 50.2 (55047) - http://www.bohemiancoding.com/sketch -->
    <title>Rocket</title>
    <desc>Created with Sketch.</desc>
    <defs></defs>
    <g id="Page-1" stroke="none" stroke-width="1" fill="none" fill-rule="evenodd">
        <g id="noun_Rocket_1301789_1A1A1A" fill-rule="nonzero">
            <path d="M177.166667,203.333333 L178.3,202.2 L177.166667,203.333333 Z M231,223 C231,226.766667 235,221.633333 158.533333,298.133333 C156.703937,299.942458 153.969041,300.480208 151.590876,299.498397 C149.212711,298.516585 147.653686,296.206115 147.633333,293.633333 L147.633333,244.333333 C121.333333,256.3 119.133333,258.733333 115,254.6 L45.3666667,184.966667 C41.2,180.8 43.9333333,178.133333 55.6333333,152.366667 L6.4,152.366667 C3.82721795,152.346314 1.51674796,150.787289 0.534936747,148.409124 C-0.446874461,146.030959 0.0908755256,143.296063 1.9,141.466667 C78.3333333,65 73.3333333,69 77,69 L132.4,69 C180,21.3333333 234.966667,0 293.633333,0 C295.32767,-2.32223339e-05 296.952128,0.675322441 298.147073,1.87652314 C299.342017,3.07772384 300.008871,4.70568697 300,6.4 C300,65.2 278.566667,120 231,167.633333 L231,223 Z M61.7666667,139.666667 L119.633333,81.7666667 L79.6333333,81.7666667 L21.8,139.6 L61.7666667,139.666667 Z M140.4,233.666667 L66.4,159.566667 L57.5333333,179.066667 L120.866667,242.4 L140.4,233.666667 Z M218.233333,180.333333 L160.4,238.233333 L160.4,278.233333 L218.233333,220.366667 L218.233333,180.333333 Z M225.733333,154.766667 C263.632411,117.085681 285.612341,66.2884162 287.133333,12.8666667 C233.688321,14.370714 182.864208,36.351934 145.166667,74.2666667 L72.1666667,147.266667 L152.733333,227.833333 L172.066667,208.5 L171.3,209.266667 L169.833333,210.733333 L171.3,209.266667 L225.733333,154.766667 Z M174.2,206.366667 L172.366667,208.2 L174.2,206.366667 Z M177.133333,203.433333 L174.8,205.766667 L177.133333,203.433333 Z M54.1,236.9 L19.2666667,271.7 C16.7721807,274.194486 16.7721807,278.238847 19.2666668,280.733333 C21.7611529,283.227819 25.8055139,283.227819 28.3,280.733333 L63.1,245.9 C65.4632108,243.394812 65.405914,239.464555 62.9706797,237.02932 C60.5354455,234.594086 56.6051879,234.536789 54.1,236.9 Z M80.2,257.2 L51.2,286.2 C48.705514,288.694486 48.7055141,292.738847 51.2000002,295.233333 C53.6944862,297.727819 57.7388472,297.727819 60.2333333,295.233333 L89.2333333,266.233333 C91.7278194,263.738847 91.7278194,259.694486 89.2333333,257.2 C86.7388472,254.705514 82.6944861,254.705514 80.2,257.2 Z M33.7666667,210.766667 L4.76666667,239.766667 C3.15301709,241.380316 2.52281519,243.732262 3.11345193,245.936548 C3.70408867,248.140834 5.42583227,249.862578 7.63011859,250.453215 C9.83440491,251.043851 12.1863504,250.41365 13.8,248.8 L42.8,219.8 C45.2944861,217.305514 45.2944861,213.261153 42.8,210.766667 C40.3055139,208.272181 36.2611528,208.272181 33.7666667,210.766667 Z" id="Shape" fill="#1A1A1A"></path>
            <g id="espressif-logo" transform="translate(116.666667, 90.000000)" fill="#FF3034">
                <g id="XMLID_230_">
                    <path d="M30.8100358,69.0070922 C30.8100358,72.5815603 27.8996416,75.4609929 24.2867384,75.4609929 C20.6738351,75.4609929 17.7634409,72.5815603 17.7634409,69.0070922 C17.7634409,65.4326241 20.6738351,62.5531915 24.2867384,62.5531915 C27.8996416,62.5531915 30.8100358,65.4326241 30.8100358,69.0070922" id="XMLID_28_"></path>
                    <path d="M88.2150538,62.2553191 C84,32.7659574 60.3154122,9.33333333 30.5089606,5.16312057 C26.9964158,6.95035461 23.7849462,9.33333333 20.9749104,12.0141844 L20.9749104,18.2695035 C50.781362,18.2695035 74.9677419,42.1985816 74.9677419,71.6879433 L81.2903226,71.6879433 C84,68.9078014 86.3082437,65.7304965 88.2150538,62.2553191" id="XMLID_27_"></path>
                    <path d="M93.1326165,42.4964539 C93.1326165,19.1631206 73.9641577,0.19858156 50.3799283,0.19858156 C48.874552,0.19858156 47.4695341,0.29787234 45.9641577,0.397163121 L44.9605735,3.17730496 C65.9354839,10.4255319 82.5949821,26.9078014 90.0215054,47.6595745 L92.8315412,46.6666667 C93.0322581,45.3758865 93.1326165,43.9858156 93.1326165,42.4964539" id="XMLID_26_"></path>
                    <path d="M50.2795699,74.5673759 C51.2831541,64.0425532 46.5663082,54.3120567 38.6379928,48.3546099 C34.4229391,45.177305 29.4050179,43.1914894 23.7849462,42.5957447 C22.2795699,42.3971631 21.2759857,41.2056738 21.3763441,39.7163121 C21.4767025,38.4255319 22.5806452,37.4326241 23.9856631,37.3333333 C24.0860215,37.3333333 24.1863799,37.3333333 24.2867384,37.3333333 C30.3082437,37.929078 35.9283154,40.0141844 40.5448029,43.2907801 C50.5806452,50.141844 56.702509,62.1560284 55.3978495,75.0638298 C55.1971326,77.1489362 54.7956989,79.035461 54.1935484,81.0212766 L61.921147,83.2056738 C64.2293907,82.5106383 66.437276,81.7163121 68.6451613,80.7234043 C69.1469534,77.8439716 69.5483871,74.7659574 69.5483871,71.6879433 C69.5483871,47.4609929 51.483871,27.4042553 28,24.0283688 C25.1899642,23.6312057 22.2795699,23.6312057 20.2724014,24.1276596 C13.046595,25.9148936 7.72759857,32.3687943 7.72759857,40.1134752 C7.72759857,47.4609929 12.5448029,53.7163121 19.2688172,55.8014184 C20.5734767,56.1985816 22.4802867,56.3971631 23.483871,56.4964539 C30.8100358,57.787234 36.4301075,64.141844 36.4301075,71.6879433 C36.4301075,74.7659574 35.5268817,77.6453901 33.921147,80.0283688 L39.2401434,83.4042553 C41.8494624,84.0992908 44.4587814,84.4964539 47.1684588,84.6950355 C48.874552,81.6170213 49.9784946,78.2411348 50.2795699,74.5673759" id="XMLID_25_"></path>
                    <path d="M50.8817204,92.7375887 C37.3333333,92.7375887 24.5878136,87.4751773 14.953405,78.0425532 C5.31899642,68.5106383 0.100358423,55.9007092 0.100358423,42.4964539 C0.100358423,29.0921986 5.41935484,16.4822695 14.953405,6.95035461 C15.655914,6.25531915 16.9605735,6.25531915 17.6630824,6.95035461 C18.3655914,7.64539007 18.3655914,8.93617021 17.6630824,9.63120567 C8.83154122,18.3687943 3.91397849,30.0851064 3.91397849,42.4964539 C3.91397849,54.9078014 8.83154122,66.5248227 17.6630824,75.3617021 C26.4946237,84.0992908 38.3369176,88.964539 50.8817204,88.964539 C63.4265233,88.964539 75.1684588,84.0992908 84.1003584,75.3617021 C84.8028674,74.6666667 86.1075269,74.6666667 86.8100358,75.3617021 C87.5125448,76.0567376 87.5125448,77.3475177 86.8100358,78.0425532 C77.1756272,87.4751773 64.4301075,92.7375887 50.8817204,92.7375887" id="XMLID_24_"></path>
                </g>
            </g>
        </g>
    </g>
</svg>