<?xml version="1.0" encoding="UTF-8"?>
<svg width="90px" height="90px" viewBox="0 0 90 90" version="1.1" xmlns="http://www.w3.org/2000/svg" xmlns:xlink="http://www.w3.org/1999/xlink">
    <!-- Generator: Sketch 50.2 (55047) - http://www.bohemiancoding.com/sketch -->
    <title>Untitled</title>
    <desc>Created with Sketch.</desc>
    <defs></defs>
    <g id="Page-1" stroke="none" stroke-width="1" fill="none" fill-rule="evenodd">
        <g id="espressif-logo" transform="translate(35.000000, 27.000000)" fill="#FF3034" fill-rule="nonzero">
            <g id="XMLID_230_">
                <path d="M9.24301075,20.7021277 C9.24301075,21.7744681 8.36989247,22.6382979 7.28602151,22.6382979 C6.20215054,22.6382979 5.32903226,21.7744681 5.32903226,20.7021277 C5.32903226,19.6297872 6.20215054,18.7659574 7.28602151,18.7659574 C8.36989247,18.7659574 9.24301075,19.6297872 9.24301075,20.7021277" id="XMLID_28_"></path>
                <path d="M26.4645161,18.6765957 C25.2,9.82978723 18.0946237,2.8 9.15268817,1.54893617 C8.09892473,2.08510638 7.13548387,2.8 6.29247312,3.60425532 L6.29247312,5.48085106 C15.2344086,5.48085106 22.4903226,12.6595745 22.4903226,21.506383 L24.3870968,21.506383 C25.2,20.6723404 25.8924731,19.7191489 26.4645161,18.6765957" id="XMLID_27_"></path>
                <path d="M27.9397849,12.7489362 C27.9397849,5.74893617 22.1892473,0.0595744681 15.1139785,0.0595744681 C14.6623656,0.0595744681 14.2408602,0.0893617021 13.7892473,0.119148936 L13.488172,0.953191489 C19.7806452,3.12765957 24.7784946,8.07234043 27.0064516,14.2978723 L27.8494624,14 C27.9096774,13.612766 27.9397849,13.1957447 27.9397849,12.7489362" id="XMLID_26_"></path>
                <path d="M15.083871,22.3702128 C15.3849462,19.212766 13.9698925,16.293617 11.5913978,14.506383 C10.3268817,13.5531915 8.82150538,12.9574468 7.13548387,12.7787234 C6.68387097,12.7191489 6.3827957,12.3617021 6.41290323,11.9148936 C6.44301075,11.5276596 6.77419355,11.2297872 7.19569892,11.2 C7.22580645,11.2 7.25591398,11.2 7.28602151,11.2 C9.09247312,11.3787234 10.7784946,12.0042553 12.1634409,12.987234 C15.1741935,15.0425532 17.0107527,18.6468085 16.6193548,22.5191489 C16.5591398,23.1446809 16.4387097,23.7106383 16.2580645,24.306383 L18.5763441,24.9617021 C19.2688172,24.7531915 19.9311828,24.5148936 20.5935484,24.2170213 C20.744086,23.3531915 20.8645161,22.4297872 20.8645161,21.506383 C20.8645161,14.2382979 15.4451613,8.2212766 8.4,7.20851064 C7.55698925,7.0893617 6.68387097,7.0893617 6.08172043,7.23829787 C3.91397849,7.77446809 2.31827957,9.7106383 2.31827957,12.0340426 C2.31827957,14.2382979 3.76344086,16.1148936 5.78064516,16.7404255 C6.17204301,16.8595745 6.74408602,16.9191489 7.04516129,16.9489362 C9.24301075,17.3361702 10.9290323,19.2425532 10.9290323,21.506383 C10.9290323,22.4297872 10.6580645,23.293617 10.1763441,24.0085106 L11.772043,25.0212766 C12.5548387,25.2297872 13.3376344,25.3489362 14.1505376,25.4085106 C14.6623656,24.4851064 14.9935484,23.4723404 15.083871,22.3702128" id="XMLID_25_"></path>
                <path d="M15.2645161,27.8212766 C11.2,27.8212766 7.37634409,26.2425532 4.48602151,23.412766 C1.59569892,20.5531915 0.0301075269,16.7702128 0.0301075269,12.7489362 C0.0301075269,8.72765957 1.62580645,4.94468085 4.48602151,2.08510638 C4.69677419,1.87659574 5.08817204,1.87659574 5.29892473,2.08510638 C5.50967742,2.29361702 5.50967742,2.68085106 5.29892473,2.8893617 C2.64946237,5.5106383 1.17419355,9.02553191 1.17419355,12.7489362 C1.17419355,16.4723404 2.64946237,19.9574468 5.29892473,22.6085106 C7.9483871,25.2297872 11.5010753,26.6893617 15.2645161,26.6893617 C19.027957,26.6893617 22.5505376,25.2297872 25.2301075,22.6085106 C25.4408602,22.4 25.8322581,22.4 26.0430108,22.6085106 C26.2537634,22.8170213 26.2537634,23.2042553 26.0430108,23.412766 C23.1526882,26.2425532 19.3290323,27.8212766 15.2645161,27.8212766" id="XMLID_24_"></path>
            </g>
        </g>
        <g id="noun_Rocket_1301789_1A1A1A" fill="#1A1A1A" fill-rule="nonzero">
            <path d="M53.15,61 L53.49,60.66 L53.15,61 Z M69.3,66.9 C69.3,68.03 70.5,66.49 47.56,89.44 C47.0111812,89.9827373 46.1907123,90.1440623 45.4772628,89.849519 C44.7638133,89.5549756 44.2961057,88.8618346 44.29,88.09 L44.29,73.3 C36.4,76.89 35.74,77.62 34.5,76.38 L13.61,55.49 C12.36,54.24 13.18,53.44 16.69,45.71 L1.92,45.71 C1.14816539,45.7038943 0.455024387,45.2361867 0.160481024,44.5227372 C-0.134062338,43.8092877 0.0272626577,42.9888188 0.57,42.44 C23.5,19.5 22,20.7 23.1,20.7 L39.72,20.7 C54,6.4 70.49,0 88.09,0 C88.5983009,-6.96670017e-06 89.0856385,0.202596732 89.4441218,0.562956942 C89.8026052,0.923317152 90.0026613,1.41170609 90,1.92 C90,19.56 83.57,36 69.3,50.29 L69.3,66.9 Z M18.53,41.9 L35.89,24.53 L23.89,24.53 L6.54,41.88 L18.53,41.9 Z M42.12,70.1 L19.92,47.87 L17.26,53.72 L36.26,72.72 L42.12,70.1 Z M65.47,54.1 L48.12,71.47 L48.12,83.47 L65.47,66.11 L65.47,54.1 Z M67.72,46.43 C79.0897232,35.1257044 85.6837022,19.8865249 86.14,3.86 C70.1064962,4.31121419 54.8592623,10.9055802 43.55,22.28 L21.65,44.18 L45.82,68.35 L51.62,62.55 L51.39,62.78 L50.95,63.22 L51.39,62.78 L67.72,46.43 Z M52.26,61.91 L51.71,62.46 L52.26,61.91 Z M53.14,61.03 L52.44,61.73 L53.14,61.03 Z M16.23,71.07 L5.78,81.51 C5.0316542,82.2583458 5.03165422,83.4716541 5.78000004,84.22 C6.52834586,84.9683458 7.74165416,84.9683458 8.49,84.22 L18.93,73.77 C19.6389632,73.0184436 19.6217742,71.8393664 18.8912039,71.1087961 C18.1606336,70.3782258 16.9815564,70.3610368 16.23,71.07 Z M24.06,77.16 L15.36,85.86 C14.6116542,86.6083458 14.6116542,87.8216541 15.3600001,88.5699999 C16.1083459,89.3183458 17.3216542,89.3183458 18.07,88.57 L26.77,79.87 C27.5183458,79.1216542 27.5183458,77.9083458 26.77,77.16 C26.0216542,76.4116542 24.8083458,76.4116542 24.06,77.16 Z M10.13,63.23 L1.43,71.93 C0.945905126,72.4140949 0.756844556,73.1196785 0.934035578,73.7809644 C1.1112266,74.4422503 1.62774968,74.9587734 2.28903558,75.1359644 C2.95032147,75.3131554 3.65590513,75.1240949 4.14,74.64 L12.84,65.94 C13.5883458,65.1916542 13.5883458,63.9783458 12.84,63.23 C12.0916542,62.4816542 10.8783458,62.4816542 10.13,63.23 Z" id="Shape"></path>
        </g>
    </g>
</svg>